<?xml version="1.0" encoding="UTF-8" standalone="no"?>
<!DOCTYPE svg PUBLIC "-//W3C//DTD SVG 1.1//EN"
 "http://www.w3.org/Graphics/SVG/1.1/DTD/svg11.dtd">
<!-- Generated by graphviz version 2.42.3 (20191010.1750)
 -->
<!-- Title: snakemake_dag Pages: 1 -->
<svg width="356pt" height="188pt"
 viewBox="0.00 0.00 356.00 188.00" xmlns="http://www.w3.org/2000/svg" xmlns:xlink="http://www.w3.org/1999/xlink">
<g id="graph0" class="graph" transform="scale(1 1) rotate(0) translate(4 184)">
<title>snakemake_dag</title>
<polygon fill="white" stroke="transparent" points="-4,4 -4,-184 352,-184 352,4 -4,4"/>
<!-- 0 -->
<g id="node1" class="node">
<title>0</title>
<path fill="none" stroke="#d6d856" stroke-width="2" d="M186.5,-36C186.5,-36 156.5,-36 156.5,-36 150.5,-36 144.5,-30 144.5,-24 144.5,-24 144.5,-12 144.5,-12 144.5,-6 150.5,0 156.5,0 156.5,0 186.5,0 186.5,0 192.5,0 198.5,-6 198.5,-12 198.5,-12 198.5,-24 198.5,-24 198.5,-30 192.5,-36 186.5,-36"/>
<text text-anchor="middle" x="171.5" y="-15.5" font-family="sans" font-size="10.00">all</text>
</g>
<!-- 1 -->
<g id="node2" class="node">
<title>1</title>
<path fill="none" stroke="#59d856" stroke-width="2" d="M225,-108C225,-108 118,-108 118,-108 112,-108 106,-102 106,-96 106,-96 106,-84 106,-84 106,-78 112,-72 118,-72 118,-72 225,-72 225,-72 231,-72 237,-78 237,-84 237,-84 237,-96 237,-96 237,-102 231,-108 225,-108"/>
<text text-anchor="middle" x="171.5" y="-87.5" font-family="sans" font-size="10.00">Clonality_Classification</text>
</g>
<!-- 1&#45;&gt;0 -->
<g id="edge1" class="edge">
<title>1&#45;&gt;0</title>
<path fill="none" stroke="grey" stroke-width="2" d="M171.5,-71.7C171.5,-63.98 171.5,-54.71 171.5,-46.11"/>
<polygon fill="grey" stroke="grey" stroke-width="2" points="175,-46.1 171.5,-36.1 168,-46.1 175,-46.1"/>
</g>
<!-- 2 -->
<g id="node3" class="node">
<title>2</title>
<path fill="none" stroke="#d85656" stroke-width="2" d="M149,-180C149,-180 12,-180 12,-180 6,-180 0,-174 0,-168 0,-168 0,-156 0,-156 0,-150 6,-144 12,-144 12,-144 149,-144 149,-144 155,-144 161,-150 161,-156 161,-156 161,-168 161,-168 161,-174 155,-180 149,-180"/>
<text text-anchor="middle" x="80.5" y="-159.5" font-family="sans" font-size="10.00">Calculate_Clonality_statistics</text>
</g>
<!-- 2&#45;&gt;1 -->
<g id="edge2" class="edge">
<title>2&#45;&gt;1</title>
<path fill="none" stroke="grey" stroke-width="2" d="M102.99,-143.7C114.46,-134.88 128.56,-124.03 140.98,-114.47"/>
<polygon fill="grey" stroke="grey" stroke-width="2" points="143.47,-116.98 149.26,-108.1 139.2,-111.43 143.47,-116.98"/>
</g>
<!-- 3 -->
<g id="node4" class="node">
<title>3</title>
<path fill="none" stroke="#56d8d8" stroke-width="2" d="M336,-180C336,-180 191,-180 191,-180 185,-180 179,-174 179,-168 179,-168 179,-156 179,-156 179,-150 185,-144 191,-144 191,-144 336,-144 336,-144 342,-144 348,-150 348,-156 348,-156 348,-168 348,-168 348,-174 342,-180 336,-180"/>
<text text-anchor="middle" x="263.5" y="-159.5" font-family="sans" font-size="10.00">Determine_NGSpanel_clonality</text>
</g>
<!-- 3&#45;&gt;1 -->
<g id="edge3" class="edge">
<title>3&#45;&gt;1</title>
<path fill="none" stroke="grey" stroke-width="2" d="M240.76,-143.7C229.06,-134.8 214.64,-123.82 201.99,-114.2"/>
<polygon fill="grey" stroke="grey" stroke-width="2" points="204.06,-111.37 193.98,-108.1 199.82,-116.94 204.06,-111.37"/>
</g>
</g>
</svg>
