<?xml version="1.0" encoding="UTF-8" standalone="no"?>
<!DOCTYPE svg PUBLIC "-//W3C//DTD SVG 1.1//EN"
 "http://www.w3.org/Graphics/SVG/1.1/DTD/svg11.dtd">
<!-- Generated by graphviz version 2.42.3 (20191010.1750)
 -->
<!-- Title: snakemake_dag Pages: 1 -->
<svg width="169pt" height="260pt"
 viewBox="0.00 0.00 169.00 260.00" xmlns="http://www.w3.org/2000/svg" xmlns:xlink="http://www.w3.org/1999/xlink">
<g id="graph0" class="graph" transform="scale(1 1) rotate(0) translate(4 256)">
<title>snakemake_dag</title>
<polygon fill="white" stroke="transparent" points="-4,4 -4,-256 165,-256 165,4 -4,4"/>
<!-- 0 -->
<g id="node1" class="node">
<title>0</title>
<path fill="none" stroke="#d85656" stroke-width="2" d="M95.5,-36C95.5,-36 65.5,-36 65.5,-36 59.5,-36 53.5,-30 53.5,-24 53.5,-24 53.5,-12 53.5,-12 53.5,-6 59.5,0 65.5,0 65.5,0 95.5,0 95.5,0 101.5,0 107.5,-6 107.5,-12 107.5,-12 107.5,-24 107.5,-24 107.5,-30 101.5,-36 95.5,-36"/>
<text text-anchor="middle" x="80.5" y="-15.5" font-family="sans" font-size="10.00">all</text>
</g>
<!-- 1 -->
<g id="node2" class="node">
<title>1</title>
<path fill="none" stroke="#56d8d8" stroke-width="2" d="M134,-108C134,-108 27,-108 27,-108 21,-108 15,-102 15,-96 15,-96 15,-84 15,-84 15,-78 21,-72 27,-72 27,-72 134,-72 134,-72 140,-72 146,-78 146,-84 146,-84 146,-96 146,-96 146,-102 140,-108 134,-108"/>
<text text-anchor="middle" x="80.5" y="-87.5" font-family="sans" font-size="10.00">Clonality_Classification</text>
</g>
<!-- 1&#45;&gt;0 -->
<g id="edge1" class="edge">
<title>1&#45;&gt;0</title>
<path fill="none" stroke="grey" stroke-width="2" d="M80.5,-71.7C80.5,-63.98 80.5,-54.71 80.5,-46.11"/>
<polygon fill="grey" stroke="grey" stroke-width="2" points="84,-46.1 80.5,-36.1 77,-46.1 84,-46.1"/>
</g>
<!-- 2 -->
<g id="node3" class="node">
<title>2</title>
<path fill="none" stroke="#59d856" stroke-width="2" d="M149,-252C149,-252 12,-252 12,-252 6,-252 0,-246 0,-240 0,-240 0,-228 0,-228 0,-222 6,-216 12,-216 12,-216 149,-216 149,-216 155,-216 161,-222 161,-228 161,-228 161,-240 161,-240 161,-246 155,-252 149,-252"/>
<text text-anchor="middle" x="80.5" y="-231.5" font-family="sans" font-size="10.00">Calculate_Clonality_statistics</text>
</g>
<!-- 2&#45;&gt;1 -->
<g id="edge2" class="edge">
<title>2&#45;&gt;1</title>
<path fill="none" stroke="grey" stroke-width="2" d="M75.63,-215.98C72.94,-205.67 69.86,-192.19 68.5,-180 66.72,-164.1 66.72,-159.9 68.5,-144 69.46,-135.43 71.26,-126.22 73.19,-117.93"/>
<polygon fill="grey" stroke="grey" stroke-width="2" points="76.63,-118.57 75.63,-108.02 69.84,-116.89 76.63,-118.57"/>
</g>
<!-- 3 -->
<g id="node4" class="node">
<title>3</title>
<path fill="none" stroke="#d6d856" stroke-width="2" d="M135,-180C135,-180 90,-180 90,-180 84,-180 78,-174 78,-168 78,-168 78,-156 78,-156 78,-150 84,-144 90,-144 90,-144 135,-144 135,-144 141,-144 147,-150 147,-156 147,-156 147,-168 147,-168 147,-174 141,-180 135,-180"/>
<text text-anchor="middle" x="112.5" y="-159.5" font-family="sans" font-size="10.00">Train_GMM</text>
</g>
<!-- 2&#45;&gt;3 -->
<g id="edge4" class="edge">
<title>2&#45;&gt;3</title>
<path fill="none" stroke="grey" stroke-width="2" d="M88.41,-215.7C92.05,-207.73 96.45,-198.1 100.49,-189.26"/>
<polygon fill="grey" stroke="grey" stroke-width="2" points="103.71,-190.65 104.68,-180.1 97.34,-187.74 103.71,-190.65"/>
</g>
<!-- 3&#45;&gt;1 -->
<g id="edge3" class="edge">
<title>3&#45;&gt;1</title>
<path fill="none" stroke="grey" stroke-width="2" d="M104.59,-143.7C100.95,-135.73 96.55,-126.1 92.51,-117.26"/>
<polygon fill="grey" stroke="grey" stroke-width="2" points="95.66,-115.74 88.32,-108.1 89.29,-118.65 95.66,-115.74"/>
</g>
</g>
</svg>
